<?xml version="1.0" encoding="iso-8859-1"?>
<!-- Generator: Adobe Illustrator 18.1.1, SVG Export Plug-In . SVG Version: 6.00 Build 0)  -->
<svg version="1.1" xmlns="http://www.w3.org/2000/svg" xmlns:xlink="http://www.w3.org/1999/xlink" x="0px" y="0px"
	 viewBox="0 0 21.139 15" style="enable-background:new 0 0 21.139 15;" xml:space="preserve">
<g id="icon-muteoff">
	<path style="fill:#FFFFFF;" d="M18.316,13.071c-0.203,0-0.406-0.081-0.555-0.242c-0.284-0.306-0.266-0.785,0.041-1.069
		c0.017-0.016,1.825-1.739,1.825-4.083c0-2.386-1.852-4.464-1.871-4.484c-0.28-0.309-0.256-0.787,0.053-1.068
		c0.309-0.28,0.786-0.258,1.067,0.051c0.092,0.101,2.264,2.522,2.264,5.501c0,3.017-2.215,5.105-2.309,5.192
		C18.684,13.004,18.5,13.071,18.316,13.071z"/>
	<path style="fill:#FFFFFF;" d="M15.442,10.957c-0.203,0-0.406-0.081-0.555-0.242c-0.284-0.306-0.266-0.785,0.041-1.069
		c0.006-0.006,0.917-0.882,0.917-2.047c0-1.2-0.953-2.281-0.962-2.292c-0.281-0.309-0.259-0.787,0.05-1.068
		c0.309-0.281,0.787-0.258,1.068,0.05c0.055,0.061,1.357,1.511,1.357,3.31c0,1.836-1.344,3.103-1.402,3.156
		C15.811,10.89,15.626,10.957,15.442,10.957z"/>
	<path style="fill:#FFFFFF;" d="M1.166,4.584C0.525,4.584,0,5.24,0,6.042v0.049c0,0.802,0,2.103,0,2.892
		c0,0.788,0.525,1.434,1.166,1.434S2.333,9.76,2.333,8.958V6.042C2.333,5.24,1.808,4.584,1.166,4.584z"/>
	<path style="fill:#FFFFFF;" d="M10.86,0c-0.199,0-0.412,0.067-0.634,0.199l-5.33,3.195c-0.77,0.458-1.397,1.503-1.397,2.329v3.552
		c0,0.825,0.627,1.87,1.397,2.329l5.331,3.196C10.449,14.933,10.662,15,10.861,15c0.244,0,0.449-0.101,0.593-0.292
		c0.11-0.146,0.176-0.342,0.199-0.572c0.006-0.055,0.011-0.112,0.011-0.173l0,0v0V9.007c0-0.802,0-2.114,0-2.916V1.037v0
		c0-0.064-0.005-0.123-0.012-0.18C11.596,0.331,11.299,0,10.86,0z M3.791,9.276L3.791,9.276L3.791,9.276L3.791,9.276z"/>
</g>
<g id="Calque_1">
</g>
</svg>
