<?xml version="1.0" encoding="iso-8859-1"?>
<!-- Generator: Adobe Illustrator 18.1.1, SVG Export Plug-In . SVG Version: 6.00 Build 0)  -->
<svg version="1.1" xmlns="http://www.w3.org/2000/svg" xmlns:xlink="http://www.w3.org/1999/xlink" x="0px" y="0px"
	 viewBox="0 0 26 30.833" style="enable-background:new 0 0 26 30.833;" xml:space="preserve">
<g id="icon-signup">
	<path style="fill:#FFFFFF;" d="M22.917,2.833h-5.922C16.4,0.833,14.842,0,13,0S9.6,0.833,9.005,2.833H3.083
		C1.525,2.833,0,4.108,0,5.667v22.667c0,1.558,1.525,2.5,3.083,2.5h19.833c1.558,0,3.083-0.942,3.083-2.5V5.667
		C26,4.108,24.475,2.833,22.917,2.833z M13,2.833c0.779,0,1.417,0.638,1.417,1.417S13.779,5.667,13,5.667s-1.417-0.637-1.417-1.417
		S12.221,2.833,13,2.833z M23,27.833H3v-22h3v4h14v-4h3V27.833z"/>
	<path style="fill:#FFFFFF;" d="M10.668,21.887l-3.241-3.241l-1.104,1.096l4.345,4.345l9.326-9.326l-1.096-1.096L10.668,21.887z"/>
</g>
<g id="Calque_1">
</g>
</svg>
