<?xml version="1.0" encoding="iso-8859-1"?>
<!-- Generator: Adobe Illustrator 18.1.1, SVG Export Plug-In . SVG Version: 6.00 Build 0)  -->
<svg version="1.1" xmlns="http://www.w3.org/2000/svg" xmlns:xlink="http://www.w3.org/1999/xlink" x="0px" y="0px"
	 viewBox="0 0 18 22" style="enable-background:new 0 0 18 22;" xml:space="preserve">
<g id="icon-signup-mobile">
	<path style="fill:#FFFFFF;" d="M16,2h-4.18C11.4,1,10.3,0,9,0S6.6,1,6.18,2H2C0.9,2,0,2.9,0,4v16c0,1.1,0.9,2,2,2h14
		c1.1,0,2-0.9,2-2V4C18,2.9,17.1,2,16,2z M9,2c0.55,0,1,0.45,1,1S9.55,4,9,4S8,3.55,8,3S8.45,2,9,2z M16,20H2V4h2v3h10V4h2V20z"/>
	<path style="fill:#FFFFFF;" d="M7.354,15.45l-2.288-2.288l-0.779,0.774l3.067,3.067l6.583-6.583l-0.774-0.774L7.354,15.45z"/>
</g>
<g id="Calque_1">
</g>
</svg>
