<?xml version="1.0" encoding="iso-8859-1"?>
<!-- Generator: Adobe Illustrator 18.1.1, SVG Export Plug-In . SVG Version: 6.00 Build 0)  -->
<svg version="1.1" xmlns="http://www.w3.org/2000/svg" xmlns:xlink="http://www.w3.org/1999/xlink" x="0px" y="0px"
	 viewBox="0 0 21.058 15" style="enable-background:new 0 0 21.058 15;" xml:space="preserve">
<g id="icon-muteon">
	<path style="fill:#FFFFFF;" d="M18.471,7.5l2.374-2.374c0.282-0.281,0.282-0.738,0-1.019c-0.282-0.282-0.738-0.282-1.019,0
		l-2.374,2.374l-2.374-2.374c-0.282-0.282-0.738-0.282-1.019,0c-0.282,0.281-0.282,0.738,0,1.019L16.432,7.5l-2.374,2.374
		c-0.282,0.282-0.282,0.738,0,1.019c0.141,0.141,0.325,0.211,0.51,0.211c0.184,0,0.369-0.07,0.51-0.211l2.374-2.374l2.374,2.374
		c0.141,0.141,0.325,0.211,0.51,0.211c0.184,0,0.369-0.07,0.51-0.211c0.282-0.282,0.282-0.738,0-1.019L18.471,7.5z"/>
	<path style="fill:#FFFFFF;" d="M1.166,4.584C0.525,4.584,0,5.24,0,6.042v0.049c0,0.802,0,2.103,0,2.892
		c0,0.788,0.525,1.434,1.166,1.434S2.333,9.76,2.333,8.958V6.042C2.333,5.24,1.808,4.584,1.166,4.584z"/>
	<path style="fill:#FFFFFF;" d="M10.86,0c-0.199,0-0.412,0.067-0.634,0.199l-5.33,3.195c-0.77,0.458-1.397,1.503-1.397,2.329v3.552
		c0,0.825,0.627,1.87,1.397,2.329l5.331,3.196c0.222,0.133,0.435,0.2,0.634,0.2c0.244,0,0.449-0.101,0.593-0.292
		c0.11-0.146,0.176-0.342,0.199-0.572c0.006-0.055,0.011-0.112,0.011-0.173l0,0l0,0V9.007c0-0.802,0-2.114,0-2.916V1.037l0,0
		c0-0.064-0.005-0.123-0.012-0.18C11.596,0.331,11.299,0,10.86,0z M3.791,9.276L3.791,9.276L3.791,9.276L3.791,9.276z"/>
</g>
<g id="Calque_1">
</g>
</svg>
