<?xml version="1.0" encoding="iso-8859-1"?>
<!-- Generator: Adobe Illustrator 18.1.1, SVG Export Plug-In . SVG Version: 6.00 Build 0)  -->
<svg version="1.1" xmlns="http://www.w3.org/2000/svg" xmlns:xlink="http://www.w3.org/1999/xlink" x="0px" y="0px"
	 viewBox="0 0 15.502 11" style="enable-background:new 0 0 15.502 11;" xml:space="preserve">
<g id="icon-muteoff-mobile">
	<g>
		<path style="fill:#FFFFFF;" d="M13.432,9.585c-0.149,0-0.298-0.06-0.407-0.178c-0.208-0.225-0.195-0.576,0.03-0.784
			c0.012-0.011,1.338-1.275,1.338-2.994c0-1.749-1.358-3.273-1.372-3.289c-0.205-0.227-0.188-0.577,0.039-0.783
			c0.226-0.205,0.577-0.189,0.782,0.037c0.068,0.074,1.66,1.849,1.66,4.034c0,2.213-1.624,3.743-1.693,3.807
			C13.702,9.536,13.567,9.585,13.432,9.585z"/>
		<path style="fill:#FFFFFF;" d="M11.324,8.035c-0.149,0-0.298-0.06-0.407-0.178c-0.208-0.225-0.195-0.576,0.03-0.784
			c0.005-0.004,0.673-0.647,0.673-1.501c0-0.88-0.699-1.673-0.706-1.68c-0.206-0.226-0.19-0.577,0.037-0.783
			c0.227-0.206,0.577-0.19,0.783,0.037c0.041,0.045,0.995,1.108,0.995,2.427c0,1.346-0.986,2.276-1.028,2.314
			C11.594,7.986,11.459,8.035,11.324,8.035z"/>
		<path style="fill:#FFFFFF;" d="M0.855,3.362C0.385,3.362,0,3.843,0,4.431v0.036c0,0.588,0,1.542,0,2.12s0.385,1.051,0.855,1.051
			s0.855-0.481,0.855-1.069V4.431C1.711,3.843,1.326,3.362,0.855,3.362z"/>
		<path style="fill:#FFFFFF;" d="M7.964,0C7.819,0,7.662,0.049,7.499,0.146L3.59,2.49C3.025,2.826,2.566,3.592,2.566,4.198v2.605
			c0,0.605,0.459,1.372,1.024,1.708L7.5,10.854C7.662,10.951,7.819,11,7.964,11c0.179,0,0.329-0.074,0.435-0.214
			c0.081-0.107,0.129-0.251,0.146-0.419c0.005-0.04,0.008-0.082,0.008-0.127l0,0v0V6.605c0-0.588,0-1.55,0-2.138V0.76v0
			c0-0.047-0.003-0.09-0.009-0.132C8.504,0.243,8.286,0,7.964,0z M2.78,6.803L2.78,6.803L2.78,6.803L2.78,6.803z"/>
	</g>
</g>
<g id="Calque_1">
</g>
</svg>
