<?xml version="1.0" encoding="iso-8859-1"?>
<!-- Generator: Adobe Illustrator 18.1.1, SVG Export Plug-In . SVG Version: 6.00 Build 0)  -->
<svg version="1.1" xmlns="http://www.w3.org/2000/svg" xmlns:xlink="http://www.w3.org/1999/xlink" x="0px" y="0px"
	 viewBox="0 0 11 11" style="enable-background:new 0 0 11 11;" xml:space="preserve">
<g id="icon-close-mobile">
	<path style="fill:#FFFFFF;" d="M6.514,5.5l4.275-4.275c0.28-0.28,0.28-0.734,0-1.015c-0.28-0.28-0.734-0.28-1.014,0L5.5,4.485
		L1.225,0.21c-0.28-0.28-0.734-0.28-1.015,0c-0.28,0.28-0.28,0.734,0,1.015L4.486,5.5L0.21,9.775c-0.28,0.28-0.28,0.734,0,1.014
		C0.35,10.93,0.534,11,0.717,11c0.184,0,0.367-0.07,0.507-0.21L5.5,6.514l4.275,4.275c0.14,0.14,0.324,0.21,0.507,0.21
		c0.184,0,0.367-0.07,0.507-0.21c0.28-0.28,0.28-0.734,0-1.014L6.514,5.5z"/>
</g>
<g id="Calque_1">
</g>
</svg>
