<svg width="15" height="15" xmlns="http://www.w3.org/2000/svg">
 <g>
  <title>Layer 1</title>
  <g id="icon-collapse">
   <path fill="#FFFFFF" stroke="null" id="svg_3" d="m6.68561,8.85895l-3.88118,0c-0.23911,0 -0.43274,0.19278 -0.43274,0.431c0,0.23781 0.19364,0.431 0.43274,0.431l2.86749,0l-4.67192,4.65215l0.61197,0.6094l4.66709,-4.64788l-0.01356,2.83248c0,0.2379 0.19367,0.4311 0.43274,0.4311c0.23911,0 0.43274,-0.1928 0.43274,-0.4311l0,-3.87764c0,-0.12762 -0.05287,-0.23079 -0.13679,-0.30164c-0.07913,-0.07865 -0.18795,-0.12888 -0.30858,-0.12888l0,0.00001zm6.51039,-2.59736l-2.86747,0l4.67147,-4.65223l-0.612,-0.60936l-4.66665,4.64788l0.01356,-2.83253c0,-0.23781 -0.19363,-0.431 -0.43274,-0.431s-0.43274,0.19278 -0.43274,0.431l0,3.87769c0,0.12765 0.0529,0.23079 0.13638,0.30119c0.07865,0.07954 0.1871,0.12981 0.30817,0.12981l3.88112,0c0.2391,0 0.4328,-0.19278 0.4328,-0.431c0.0004,-0.23822 -0.1932,-0.43144 -0.4319,-0.43144l0,-0.00001z"/>
  </g>
 </g>
</svg>
