<?xml version="1.0" encoding="iso-8859-1"?>
<!-- Generator: Adobe Illustrator 18.1.1, SVG Export Plug-In . SVG Version: 6.00 Build 0)  -->
<svg version="1.1" xmlns="http://www.w3.org/2000/svg" xmlns:xlink="http://www.w3.org/1999/xlink" x="0px" y="0px"
	 viewBox="0 0 15.442 11" style="enable-background:new 0 0 15.442 11;" xml:space="preserve">
<g id="icon-muteon-mobile">
	<path style="fill:#FFFFFF;" d="M13.545,5.5l1.741-1.741c0.207-0.206,0.207-0.541,0-0.747c-0.207-0.207-0.541-0.207-0.747,0
		l-1.741,1.741l-1.741-1.741c-0.207-0.207-0.541-0.207-0.747,0c-0.207,0.206-0.207,0.541,0,0.747L12.05,5.5l-1.741,1.741
		c-0.207,0.207-0.207,0.541,0,0.747c0.103,0.103,0.238,0.155,0.374,0.155c0.135,0,0.271-0.051,0.374-0.155l1.741-1.741l1.741,1.741
		c0.103,0.103,0.238,0.155,0.374,0.155c0.135,0,0.271-0.051,0.374-0.155c0.207-0.207,0.207-0.541,0-0.747L13.545,5.5z"/>
	<path style="fill:#FFFFFF;" d="M0.855,3.362C0.385,3.362,0,3.843,0,4.431v0.036c0,0.588,0,1.542,0,2.121
		c0,0.578,0.385,1.052,0.855,1.052s0.856-0.482,0.856-1.07V4.431C1.711,3.843,1.326,3.362,0.855,3.362z"/>
	<path style="fill:#FFFFFF;" d="M7.964,0C7.818,0,7.662,0.049,7.499,0.146L3.59,2.489C3.026,2.825,2.566,3.591,2.566,4.197v2.605
		c0,0.605,0.46,1.371,1.024,1.708L7.5,10.853C7.663,10.951,7.819,11,7.965,11c0.179,0,0.329-0.074,0.435-0.214
		c0.081-0.107,0.129-0.251,0.146-0.419c0.004-0.04,0.008-0.082,0.008-0.127l0,0l0,0V6.605c0-0.588,0-1.55,0-2.138V0.76l0,0
		c0-0.047-0.004-0.09-0.009-0.132C8.504,0.243,8.286,0,7.964,0z M2.78,6.802L2.78,6.802L2.78,6.802L2.78,6.802z"/>
</g>
<g id="Calque_1">
</g>
</svg>
