<?xml version="1.0" encoding="iso-8859-1"?>
<!-- Generator: Adobe Illustrator 18.1.1, SVG Export Plug-In . SVG Version: 6.00 Build 0)  -->
<svg version="1.1" xmlns="http://www.w3.org/2000/svg" xmlns:xlink="http://www.w3.org/1999/xlink" x="0px" y="0px"
	 viewBox="0 0 28.169 28.167" style="enable-background:new 0 0 28.169 28.167;" xml:space="preserve">
<g id="icon-shop">
	<path style="fill:#FFFFFF;" d="M27.331,13.405L14.581,0.822c-0.51-0.51-1.218-0.655-1.997-0.655H2.667C1.108,0.167,0,1.108,0,2.667
		v9.917c0,0.779,0.228,1.487,0.753,2.012l12.708,12.75c0.51,0.51,1.197,0.822,1.977,0.822s1.477-0.312,1.987-0.836l9.911-9.917
		c0.524-0.51,0.833-1.218,0.833-1.997C28.169,14.638,27.841,13.915,27.331,13.405z M4.792,6.917c-1.176,0-2.125-0.949-2.125-2.125
		c0-1.176,0.949-2.125,2.125-2.125s2.125,0.949,2.125,2.125C6.917,5.967,5.968,6.917,4.792,6.917z"/>
</g>
<g id="Calque_1">
</g>
</svg>
