<?xml version="1.0" encoding="iso-8859-1"?>
<!-- Generator: Adobe Illustrator 18.1.1, SVG Export Plug-In . SVG Version: 6.00 Build 0)  -->
<svg version="1.1" xmlns="http://www.w3.org/2000/svg" xmlns:xlink="http://www.w3.org/1999/xlink" x="0px" y="0px"
	 viewBox="0 0 15 15" style="enable-background:new 0 0 15 15;" xml:space="preserve">
<g id="icon-close">
	<path style="fill:#FFFFFF;" d="M8.883,7.5l5.83-5.83c0.382-0.382,0.382-1.001,0-1.383c-0.382-0.382-1.002-0.382-1.383,0L7.5,6.117
		l-5.83-5.83c-0.382-0.382-1.002-0.382-1.383,0c-0.382,0.382-0.382,1.001,0,1.383l5.83,5.83l-5.83,5.83
		c-0.382,0.382-0.382,1.001,0,1.383C0.478,14.904,0.728,15,0.978,15c0.25,0,0.501-0.096,0.692-0.287l5.83-5.83l5.83,5.83
		C13.521,14.904,13.771,15,14.022,15c0.25,0,0.501-0.096,0.692-0.287c0.382-0.382,0.382-1.001,0-1.383L8.883,7.5z"/>
</g>
<g id="Calque_1">
</g>
</svg>
