<?xml version="1.0" encoding="iso-8859-1"?>
<!-- Generator: Adobe Illustrator 18.1.1, SVG Export Plug-In . SVG Version: 6.00 Build 0)  -->
<svg version="1.1" xmlns="http://www.w3.org/2000/svg" xmlns:xlink="http://www.w3.org/1999/xlink" x="0px" y="0px"
	 viewBox="0 0 20 20" style="enable-background:new 0 0 20 20;" xml:space="preserve">
<g id="icon-shop-mobile">
	<path style="fill:#FFFFFF;" d="M19.41,9.58l-9-9C10.05,0.22,9.55,0,9,0H2C0.9,0,0,0.9,0,2v7c0,0.55,0.22,1.05,0.59,1.42l9,9
		C9.95,19.78,10.45,20,11,20s1.05-0.22,1.41-0.59l7-7C19.78,12.05,20,11.55,20,11C20,10.45,19.77,9.94,19.41,9.58z M3.5,5
		C2.67,5,2,4.33,2,3.5C2,2.67,2.67,2,3.5,2S5,2.67,5,3.5C5,4.33,4.33,5,3.5,5z"/>
</g>
<g id="Calque_1">
</g>
</svg>
